# xmcd
#
# Track frame offsets: 
#        183
#        13830
#        27190
#        39720
#        52100
#        64150
#        77850
#        90140
#        101678
#        113445
#        126573
#        139545
#        151273
#        162548
#        173775
#        186863
#        198573
#        210733
#        221345
#        232508
#        244563
#        255960
#
# Disc length: 3547 seconds
#
# Revision: 2
# Processed by: cddbd v1.5.2PL0 Copyright (c) Steve Scherf et al.
# Submitted via: ExactAudioCopy v1.0b1
#
DISCID=220dd916
DTITLE=Wynonie Harris v Roy Brown - Battle Of The Blues
DYEAR=1900
DGENRE=Blues
TTITLE0=Wynonie Harris - Mr Blues Is Coming To Town
TTITLE1=Roy Brown - Cadillac Baby
TTITLE2=Wynonie Harris - Good Rocking Tonight
TTITLE3=Roy Brown - Much Lovin' Ain't No Good
TTITLE4=Wynonie Harris - Rock Mr Blues
TTITLE5=Roy Brown - Hard Luck Blues
TTITLE6=Wynonie Harris - Bloodshot Eyes
TTITLE7=Roy Brown - My Gal From Kokomo
TTITLE8=Wynonie Harris - Just Like Two Drops Of Water
TTITLE9=Roy Brown - Big Town
TTITLE10=Wynonie Harris - Luscious Woman
TTITLE11=Roy Brown - Rock-A-Bye Baby
TTITLE12=Wynonie Harris - Lovin' Machine
TTITLE13=Roy Brown - Black Diamond
TTITLE14=Wynonie Harris - Keep On Churnin'
TTITLE15=Roy Brown - Ain't No Rockin' No More
TTITLE16=Wynonie Harris - Good Morning Judge
TTITLE17=Roy Brown - Fannie Brown Got Married
TTITLE18=Wynonie Harris - Quiet Whiskey
TTITLE19=Roy Brown - Shae 'Em Up Baby
TTITLE20=Wynonie Harris - Down Boy Down
TTITLE21=Roy Brown - Good Looking And Foxy Too
EXTD=
EXTT0=
EXTT1=
EXTT2=
EXTT3=
EXTT4=
EXTT5=
EXTT6=
EXTT7=
EXTT8=
EXTT9=
EXTT10=
EXTT11=
EXTT12=
EXTT13=
EXTT14=
EXTT15=
EXTT16=
EXTT17=
EXTT18=
EXTT19=
EXTT20=
EXTT21=
PLAYORDER=
